<?xml version="1.0" standalone="no"?>
<!DOCTYPE svg PUBLIC "-//W3C//DTD SVG 20010904//EN"
 "http://www.w3.org/TR/2001/REC-SVG-20010904/DTD/svg10.dtd">
<svg version="1.0" xmlns="http://www.w3.org/2000/svg"
 width="600.000000pt" height="600.000000pt" viewBox="0 0 600.000000 600.000000"
 preserveAspectRatio="xMidYMid meet">
<metadata>
Created by potrace 1.14, written by Peter Selinger 2001-2017
</metadata>
<g transform="translate(0.000000,600.000000) scale(0.100000,-0.100000)"
fill="#000000" stroke="none">
<path d="M2586 5963 c-1 -1 -83 -5 -182 -8 -297 -10 -449 -21 -500 -38 -30
-10 -65 -96 -209 -512 -40 -115 -75 -217 -78 -225 -12 -31 -219 -666 -222
-680 -2 -8 -8 -28 -15 -45 -6 -16 -12 -32 -12 -35 -1 -7 -2 -12 -41 -135 -71
-224 -79 -250 -82 -265 -2 -8 -13 -42 -24 -75 -12 -32 -23 -68 -26 -80 -2 -11
-20 -72 -40 -135 -64 -203 -245 -808 -260 -870 -9 -36 -86 -303 -110 -380 -24
-80 -28 -94 -40 -138 -2 -9 -18 -62 -35 -117 -18 -55 -33 -104 -34 -110 -2 -5
-6 -17 -9 -25 -3 -8 -20 -64 -37 -125 -18 -60 -38 -128 -45 -150 -18 -53 -176
-576 -180 -595 -2 -8 -12 -42 -23 -75 -11 -33 -28 -87 -37 -120 -10 -33 -26
-87 -36 -120 -11 -33 -21 -69 -24 -80 -2 -11 -14 -51 -25 -90 -12 -38 -23 -81
-26 -94 -3 -13 -9 -31 -13 -40 -5 -9 -12 -29 -15 -46 -3 -16 -16 -73 -30 -126
-39 -153 -51 -249 -35 -297 12 -35 38 -52 128 -83 66 -23 64 -25 112 89 47
114 200 574 225 675 3 15 13 27 23 28 17 1 761 7 1354 12 197 2 359 2 361 0 2
-2 -8 -54 -21 -116 -14 -62 -26 -121 -29 -132 -2 -11 -6 -31 -9 -45 -7 -32
-14 -68 -21 -104 -2 -16 -7 -32 -9 -35 -2 -4 -6 -27 -10 -51 -3 -25 -10 -61
-15 -80 -10 -37 -14 -115 -8 -140 8 -33 29 -58 61 -74 50 -23 137 -40 148 -29
6 6 30 75 55 154 25 79 70 223 101 319 30 96 56 180 57 185 1 6 15 51 31 100
16 50 29 95 30 100 2 6 19 64 40 130 20 66 42 136 47 155 6 19 13 42 16 50 3
8 6 20 8 25 1 6 19 64 39 130 20 66 39 127 40 135 2 8 19 65 39 125 19 61 65
209 101 330 37 121 80 263 96 315 17 52 31 102 33 110 4 17 188 630 212 705 9
28 17 57 19 65 2 8 10 35 18 60 9 25 20 61 25 80 15 51 65 217 107 355 20 66
41 134 45 150 5 17 29 98 53 180 48 159 132 441 199 665 22 74 47 158 55 185
7 28 16 57 18 65 68 230 117 398 120 410 2 8 13 53 25 100 20 82 25 104 34
153 2 12 9 42 15 67 15 66 26 176 22 223 -3 41 -124 70 -346 83 -110 6 -1193
13 -1199 7z m387 -323 c18 -1 214 -1 436 -1 223 1 406 -1 408 -3 2 -2 -4 -30
-13 -62 -10 -33 -19 -63 -20 -69 -5 -19 -55 -190 -68 -235 -8 -25 -29 -92 -46
-150 -18 -58 -36 -109 -41 -114 -11 -12 -125 -14 -959 -16 -853 -2 -813 -2
-805 10 3 5 21 69 40 142 36 140 68 240 130 400 l37 97 52 3 c41 2 722 1 849
-2z m532 -984 c11 -4 11 -14 -1 -53 -8 -26 -17 -64 -20 -83 -3 -19 -8 -42 -11
-50 -3 -8 -7 -20 -8 -26 -5 -23 -76 -239 -85 -259 -5 -11 -22 -54 -38 -95
l-29 -75 -679 0 c-647 0 -881 7 -931 26 -13 5 -23 6 -23 3 0 -2 -14 3 -31 12
-31 15 -31 17 -24 70 7 56 26 129 99 379 l43 150 449 5 c515 6 1270 4 1289 -4z
m-355 -919 c41 -3 79 -5 83 -6 13 -2 1 -59 -33 -161 -12 -36 -23 -72 -25 -80
-2 -8 -23 -78 -45 -155 -23 -77 -43 -148 -45 -157 -10 -50 -15 -52 -166 -54
-79 -1 -259 -5 -399 -8 -257 -6 -442 -11 -952 -21 -153 -4 -278 -4 -278 -1 0
26 113 454 129 488 48 103 117 140 286 154 39 3 71 7 73 9 5 4 1290 -3 1372
-8z m-220 -975 c0 -7 -10 -43 -28 -112 -37 -133 -62 -232 -67 -261 -3 -19 -8
-41 -10 -49 -2 -8 -6 -26 -9 -40 -3 -14 -12 -61 -21 -105 l-17 -80 -611 1
c-821 2 -1034 12 -1108 50 -24 12 -26 18 -23 55 2 23 6 45 9 49 3 4 7 24 11
45 3 20 12 54 19 76 8 21 12 39 9 39 -2 0 2 14 11 30 9 17 13 30 11 30 -3 0
-1 12 5 28 6 15 12 34 14 42 2 8 15 57 29 108 15 51 26 95 26 97 0 2 394 4
875 4 481 0 875 -3 875 -7z m-322 -985 c23 -2 45 -6 47 -9 4 -4 -35 -138 -65
-223 -6 -16 -38 -111 -71 -210 -34 -99 -67 -184 -73 -190 -14 -11 -1721 -14
-1731 -3 -12 12 96 441 125 497 40 79 120 121 265 140 69 8 1420 7 1503 -2z"/>
<path d="M4362 5042 c-13 -48 -27 -103 -33 -122 -14 -52 -19 -68 -24 -91 -2
-11 -6 -28 -9 -37 -7 -24 -18 -113 -19 -142 0 -101 31 -250 98 -465 64 -206
177 -579 180 -598 2 -10 7 -27 10 -36 8 -25 -11 -37 -75 -50 -99 -19 -163 -27
-307 -36 -37 -2 -86 -7 -108 -10 -22 -4 -53 -9 -68 -11 -52 -8 -115 -44 -126
-72 -21 -53 -20 -79 2 -100 41 -38 140 -53 447 -68 63 -3 144 -7 180 -9 36 -2
84 -4 107 -4 l41 -1 48 -142 c26 -79 49 -147 50 -153 1 -5 32 -100 69 -210 37
-110 68 -204 69 -210 2 -5 6 -17 9 -25 9 -23 58 -183 62 -203 2 -9 6 -21 9
-26 3 -5 12 -33 20 -62 8 -30 31 -106 51 -169 32 -99 53 -169 70 -230 37 -135
38 -125 -11 -135 -102 -20 -591 -24 -1184 -10 -190 4 -399 8 -465 9 l-120 1
-42 -127 c-23 -69 -45 -139 -48 -155 -10 -43 -12 -174 -4 -213 4 -19 10 -51
13 -70 3 -19 15 -71 27 -115 11 -44 22 -87 24 -95 7 -29 86 -295 94 -315 5
-11 31 -90 59 -175 28 -85 67 -194 87 -242 35 -84 37 -86 63 -78 32 9 99 43
125 64 38 29 42 128 11 256 -3 14 -9 41 -14 60 -4 19 -27 107 -50 195 -23 88
-43 167 -45 175 -2 8 -16 67 -33 130 -16 63 -32 126 -35 140 -3 14 -12 52 -21
85 -23 92 -31 83 84 100 98 14 386 20 980 20 l654 0 12 -40 c6 -22 33 -112 59
-200 26 -88 51 -173 55 -190 5 -16 27 -93 50 -170 23 -77 45 -153 50 -170 4
-16 18 -61 30 -99 12 -38 23 -76 25 -85 9 -37 88 -257 97 -268 27 -34 154 36
201 109 19 31 30 105 16 114 -5 3 -7 9 -4 13 7 12 -70 305 -125 476 -11 33
-43 134 -70 225 -28 91 -55 176 -60 190 -5 14 -22 70 -39 125 -16 55 -58 190
-91 300 -34 110 -63 205 -64 210 -1 6 -4 15 -7 20 -4 6 -12 35 -20 65 -7 30
-16 60 -20 65 -8 13 -34 120 -28 121 2 0 -2 8 -9 17 -7 8 -15 27 -18 42 -2 14
-11 45 -18 68 -17 51 -68 218 -72 232 -4 18 -52 178 -159 530 -100 329 -116
383 -136 445 -29 92 -79 256 -79 262 0 4 -8 27 -16 50 -9 24 -17 50 -19 58 -2
8 -18 60 -35 115 -17 55 -32 107 -34 115 -2 8 -19 60 -37 115 -18 55 -34 105
-35 110 -1 6 -18 63 -38 127 -20 65 -36 119 -36 120 1 2 -5 21 -13 43 -8 22
-22 63 -30 90 -43 143 -158 509 -161 512 -1 1 -12 -37 -24 -85z"/>
</g>
</svg>
