<svg width="250" height="250" viewBox="0 0 250 250" fill="none" xmlns="http://www.w3.org/2000/svg">
    <circle cx="125" cy="125" r="125" fill="#FEE7D1" />
    <path d="M55.1722 198.184C51.9196 197.041 52.4075 194.757 61.3523 165.385C65.906 150.372 70.4597 135.523 71.2728 132.423C79.2418 103.866 95.6677 53.2812 97.294 52.1389C98.4324 51.4862 111.28 50.8335 125.917 50.8335C147.547 50.8335 152.589 51.323 153.24 53.118C153.727 54.4234 152.264 62.0928 149.987 69.9254C138.44 109.251 111.443 198.347 110.792 198.999C110.63 199.163 109.166 198.836 107.54 198.347C105.426 197.531 105.1 196.062 105.751 192.635C106.239 190.025 107.215 185.782 107.702 183.334L108.678 178.602L87.0482 178.765L65.4181 178.928L62.1654 189.209C60.3765 194.757 58.5875 199.326 58.0996 199.163C57.6117 199.163 56.148 198.673 55.1722 198.184ZM113.882 163.916C115.346 159.673 116.485 156.084 116.485 155.757C116.485 155.431 106.564 155.268 94.5293 155.268C70.1344 155.268 71.7607 154.452 68.6707 167.18L67.6949 171.585H89.4877H111.28L113.882 163.916ZM120.388 142.703C120.876 140.092 121.689 136.502 122.339 134.544L123.315 130.791H101.522H79.5671L77.7781 137.155C76.6397 140.582 75.8265 144.172 75.8265 145.314C75.8265 146.619 82.4945 147.109 97.6193 147.109H119.412L120.388 142.703ZM128.845 114.473C130.146 110.394 131.122 106.967 131.122 106.804C131.122 106.477 121.201 106.314 109.166 106.314C84.7713 106.314 86.3976 105.498 83.3076 118.226L82.1692 122.795L104.45 122.306L126.73 121.816L128.845 114.473ZM134.374 95.7075C135.187 93.423 136.488 89.6699 136.976 87.5486L137.952 83.4692H116.159H94.204L92.415 89.8331C91.2766 93.2599 90.4634 96.8498 90.4634 97.992C90.4634 99.2975 96.9687 99.787 111.606 99.787H132.748L134.374 95.7075ZM140.879 74.9839C140.879 74.6575 142.018 71.0676 143.319 66.825L145.596 58.9924H123.64H101.848L100.221 63.0719C99.4082 65.3564 98.1072 69.1095 97.6193 71.2308L96.6435 75.3102H118.761C130.959 75.3102 140.879 75.1471 140.879 74.9839Z" fill="#E28A59" />
    <path d="M134.355 184.53C130.623 172.333 130.136 169.08 131.597 164.689L133.382 159.323L156.099 159.811C168.594 160.136 178.817 159.648 178.655 158.998C178.655 158.347 175.896 149.24 172.651 138.994L166.485 120.292L156.424 119.804C147.824 119.316 146.201 118.828 146.688 116.552C147.012 114.438 149.284 113.624 155.775 113.299C160.318 112.974 164.213 112.323 164.213 111.673C164.213 111.022 162.266 104.843 160.156 97.8495C156.586 86.7909 156.262 84.1888 157.884 78.3342L159.669 71.6665L168.432 99.9637C173.3 115.576 179.791 137.205 183.036 147.939C186.281 158.672 190.663 172.983 192.772 179.651C194.882 186.319 196.667 192.987 196.667 194.45C196.667 196.727 193.584 199.166 191.149 199.166C190.825 199.166 188.553 192.174 186.119 183.717L181.576 168.267H159.832C147.986 168.267 138.25 168.755 138.25 169.406C138.25 170.056 139.872 176.236 141.657 183.392C144.578 194.125 144.903 196.564 142.956 197.703C141.657 198.516 140.197 199.166 139.71 199.166C139.223 199.166 136.789 192.661 134.355 184.53Z" fill="#E28A59" />
</svg>
