<svg width="584" height="61" viewBox="0 0 584 61" fill="none" xmlns="http://www.w3.org/2000/svg">
    <path d="M49.7665 53.7097C48.7742 53.3626 48.923 52.6683 51.652 43.7415C53.0413 39.1788 54.4306 34.6658 54.6787 33.7236C57.1099 25.0447 62.1213 9.67072 62.6175 9.32357C62.9648 9.12519 66.8846 8.92682 71.3502 8.92682C77.9494 8.92682 79.4875 9.0756 79.686 9.62113C79.8348 10.0179 79.3883 12.3488 78.6936 14.7293C75.1708 26.6813 66.9342 53.7593 66.7358 53.9577C66.6862 54.0073 66.2396 53.9081 65.7434 53.7593C65.0984 53.5114 64.9991 53.065 65.1976 52.0236C65.3465 51.2301 65.6442 49.9406 65.793 49.1967L66.0907 47.7585L59.4916 47.8081L52.8924 47.8577L51.9001 50.9821C51.3543 52.6683 50.8085 54.0569 50.6596 54.0073C50.5108 54.0073 50.0642 53.8585 49.7665 53.7097ZM67.6785 43.2951C68.1251 42.0057 68.4724 40.9146 68.4724 40.8154C68.4724 40.7162 65.4457 40.6667 61.774 40.6667C54.3314 40.6667 54.8275 40.4187 53.8848 44.287L53.5871 45.626H60.2359H66.8846L67.6785 43.2951ZM69.6632 36.848C69.8121 36.0545 70.0602 34.9634 70.2586 34.3683L70.5563 33.2276H63.9076H57.2092L56.6634 35.1618C56.3161 36.2032 56.068 37.2943 56.068 37.6415C56.068 38.0382 58.1023 38.187 62.7167 38.187H69.3655L69.6632 36.848ZM72.2433 28.2683C72.6403 27.0284 72.938 25.987 72.938 25.9374C72.938 25.8382 69.9113 25.7886 66.2396 25.7886C58.7969 25.7886 59.2931 25.5406 58.3504 29.4089L58.0031 30.7975L64.8007 30.6488L71.5983 30.5L72.2433 28.2683ZM73.9303 22.565C74.1784 21.8707 74.5754 20.7301 74.7242 20.0854L75.0219 18.8455H68.3732H61.6748L61.129 20.7797C60.7816 21.8211 60.5336 22.9122 60.5336 23.2593C60.5336 23.6561 62.5183 23.8049 66.9839 23.8049H73.4342L73.9303 22.565ZM75.915 16.2667C75.915 16.1675 76.2624 15.0764 76.6593 13.787L77.3539 11.4065H70.6556H64.0068L63.5106 12.6463C63.2625 13.3406 62.8656 14.4813 62.7167 15.126L62.419 16.3658H69.167C72.8884 16.3658 75.915 16.3162 75.915 16.2667Z" fill="#E28A59" />
    <path d="M73.7319 49.5935C72.5907 45.874 72.4418 44.8821 72.8884 43.5431L73.4342 41.9065L80.3806 42.0553C84.2012 42.1545 87.3271 42.0057 87.2775 41.8073C87.2775 41.6089 86.434 38.8317 85.4416 35.7073L83.5562 30.0041L80.4799 29.8553C77.8501 29.7065 77.3539 29.5577 77.5028 28.8634C77.602 28.2187 78.2967 27.9707 80.2814 27.8715C81.6707 27.7723 82.8615 27.574 82.8615 27.3756C82.8615 27.1772 82.2661 25.2927 81.6211 23.1602C80.5295 19.7878 80.4302 18.9943 80.9264 17.2089L81.4722 15.1756L84.1516 23.8049C85.6401 28.5658 87.6248 35.1618 88.6172 38.4349C89.6095 41.7081 90.9492 46.0723 91.5942 48.1057C92.2393 50.139 92.785 52.1723 92.785 52.6187C92.785 53.313 91.8423 54.0569 91.098 54.0569C90.9988 54.0569 90.3042 51.9244 89.5599 49.3455L88.1706 44.6341H81.5218C77.8997 44.6341 74.9227 44.7829 74.9227 44.9813C74.9227 45.1797 75.4189 47.0642 75.9647 49.2463C76.8578 52.5195 76.957 53.2634 76.3616 53.6106C75.9646 53.8585 75.5181 54.0569 75.3692 54.0569C75.2204 54.0569 74.4761 52.0732 73.7319 49.5935Z" fill="#E28A59" />
    <path d="M13.0494 53.2138C12.5533 53.0154 12.4044 48.5024 12.4044 32.9301C12.4044 10.365 12.3548 10.6626 15.8776 9.22439C18.2097 8.28211 22.8737 8.18293 23.7172 9.02602C24.1638 9.47236 24.3127 13.8862 24.3127 25.8382C24.3127 34.765 24.4615 42.4024 24.6104 42.8488C24.8584 43.5431 26.1981 43.6423 34.4347 43.6423C39.6445 43.6423 44.2093 43.8406 44.5567 44.039C45.0032 44.3366 45.1521 45.6756 45.0528 48.8992L44.904 53.313L29.2744 53.4122C20.6906 53.4618 13.3471 53.3626 13.0494 53.2138Z" fill="#E28A59" />
    <path d="M97.5979 53.2634C97.3995 53.065 97.2506 43.7415 97.2506 32.5829V12.2992L98.9376 10.613L100.625 8.92682H109.953C122.556 8.92682 126.178 9.76991 130.544 13.7374C133.422 16.3658 134.91 19.639 135.506 24.6976C136.201 30.6488 135.655 40.1707 134.365 43.5431C133.025 47.1634 129.502 50.6349 125.731 52.1228C123.002 53.2138 122.01 53.313 110.399 53.4618C103.552 53.561 97.7964 53.4618 97.5979 53.2634ZM120.224 43.5927C120.968 43.2455 122.109 42.1545 122.704 41.2122C123.697 39.5756 123.796 38.8317 123.796 31.4919C123.796 22.6146 123.399 21.1268 120.422 19.3415C119.082 18.4984 117.892 18.3496 112.434 18.3496H106.033L107.273 19.3415C108.514 20.2837 109.457 22.3171 108.663 22.3171C108.415 22.3171 108.266 26.6317 108.266 31.839C108.266 41.5097 108.613 43.5927 110.25 44.3366C111.292 44.8325 118.785 44.2374 120.224 43.5927Z" fill="#E28A59" />
    <path d="M144.09 52.9163C143.99 52.5691 143.941 43.1463 143.99 32.0374L144.139 11.8032L145.826 10.3154L147.464 8.82764L158.231 9.02601C168.452 9.17479 169.097 9.27398 172.024 10.4642C175.746 12.0512 177.532 13.4398 179.517 16.3658C182.196 20.2837 182.742 23.3089 182.494 32.6325C182.196 42.1545 181.65 44.287 178.524 47.8577C176.341 50.3374 173.711 51.8748 169.941 52.8667C166.418 53.8089 144.487 53.8585 144.09 52.9163ZM167.162 43.3943C170.04 41.9561 170.437 40.3691 170.437 31.2439C170.437 22.1187 170.189 21.226 167.063 19.3415C165.723 18.4984 164.532 18.3496 159.422 18.3496H153.368L154.609 19.5894L155.849 20.8293L155.75 32.087C155.651 45.5268 155.353 44.8821 161.605 44.4358C163.838 44.287 166.368 43.8406 167.162 43.3943Z" fill="#E28A59" />
    <path d="M191.127 52.9658C190.284 52.1227 190.333 14.878 191.177 12.448C191.524 11.5057 192.417 10.2658 193.162 9.72031C194.501 8.72844 195.295 8.67885 208.394 8.53007C217.97 8.43088 222.535 8.53007 223.28 8.92682C224.222 9.42275 224.321 9.8195 224.173 13.539L224.024 17.6057L211.669 17.7545L199.364 17.8536L200.604 19.0935C201.497 20.0358 201.894 21.0276 202.043 23.061C202.192 24.5488 202.44 25.9374 202.639 26.1358C202.837 26.3837 206.757 26.6317 211.272 26.7805L219.558 27.0284V30.9959V34.9634L210.131 35.261C204.971 35.4593 200.406 35.6081 200.009 35.6577C199.612 35.7073 199.81 36.104 200.654 36.7488C201.696 37.5919 201.944 38.187 201.944 39.9723C201.944 44.287 201.597 44.1382 213.306 44.1382C221.593 44.1382 223.776 44.287 224.222 44.8325C224.619 45.2788 224.768 46.965 224.669 49.4447L224.52 53.313L208.146 53.4618C195.791 53.561 191.574 53.4122 191.127 52.9658Z" fill="#D57256" />
    <path d="M233.054 53.2634C232.856 53.065 232.707 43.6919 232.707 32.4341V12.0016L234.444 10.4642L236.23 8.92682H246.302C258.558 8.92682 261.336 9.52194 265.355 13.1423C268.531 15.9691 269.672 18.7959 269.672 23.5569C269.622 26.4333 269.374 27.4748 268.183 29.7561C267.29 31.3431 265.851 33.0789 264.611 33.9715C263.47 34.765 262.527 35.8561 262.527 36.3024C262.477 36.7488 264.413 40.6171 266.745 44.8325C269.077 49.0976 270.863 52.7675 270.664 53.065C270.317 53.6106 260.046 53.7593 259.203 53.1642C258.855 52.9658 256.97 49.6927 255.035 45.874C253.05 42.0553 251.065 38.6333 250.668 38.3358C250.172 37.939 248.287 37.691 245.657 37.691H241.44L242.779 39.0797C244.169 40.5179 244.169 40.5179 244.02 46.9154L243.871 53.313L238.611 53.4618C235.734 53.5114 233.253 53.4122 233.054 53.2634ZM254.787 28.0699C256.821 27.1772 257.516 25.987 257.516 23.1602C257.516 18.1512 253.001 16.465 243.375 17.8041C241.44 18.052 241.142 18.2008 241.936 18.4984C243.375 18.9943 244.069 20.978 244.069 24.4992C244.069 26.0862 244.317 27.6732 244.665 28.0699C245.459 29.0122 252.504 29.0122 254.787 28.0699Z" fill="#D57256" />
    <path d="M291.553 52.7675C291.405 52.3211 291.256 43.3943 291.256 32.9301C291.256 11.952 291.355 11.1585 294.183 9.72031C296.317 8.57966 312.591 8.57966 316.809 9.67072C323.11 11.3073 327.526 15.1756 329.164 20.5317C330.206 24.0528 330.652 32.087 330.007 37.4431C329.263 43.6423 327.278 47.6593 323.507 50.1886C319.19 53.1146 316.561 53.561 303.362 53.561C293.34 53.561 291.802 53.4618 291.553 52.7675ZM312.591 44.0886C315.221 43.4935 316.809 42.1545 317.553 39.9227C317.851 39.0301 318.099 35.2114 318.148 31.4423C318.198 25.491 318.099 24.2512 317.206 22.2675C315.717 18.9447 314.129 18.3496 306.687 18.3496H300.733L301.924 19.5894L303.164 20.7797V31.839C303.164 37.939 303.362 43.1463 303.561 43.4439C303.759 43.7414 304.256 44.1382 304.652 44.287C305.893 44.7333 310.21 44.6341 312.591 44.0886Z" fill="#D57256" />
    <path d="M454.299 52.7179C449.536 50.8829 446.609 47.9073 444.822 42.9976C443.532 39.3772 443.483 39.0797 443.681 30.1528L443.83 21.0772L445.467 17.7049C446.658 15.3244 447.849 13.787 449.586 12.3984C453.406 9.37317 456.135 8.67886 463.925 8.67886C469.73 8.72846 471.021 8.87724 473.501 9.86911C479.108 12.1008 483.326 16.713 483.475 20.6805L483.524 22.565H477.57H471.616L470.624 20.9781C468.589 17.6553 463.677 16.465 459.608 18.3C456.086 19.9366 455.738 21.1268 455.738 31.2439C455.738 38.5837 455.887 40.1707 456.631 41.5098C457.971 44.039 460.055 44.8821 464.918 44.8821C469.681 44.8821 471.318 44.1382 472.708 41.4602C473.104 40.6171 474.246 39.0797 475.238 38.0878L476.975 36.2528L475.784 36.0049C475.139 35.8065 472.459 35.6577 469.879 35.5585L465.166 35.4594L465.017 33.7236C464.818 31.2439 466.406 28.9626 468.738 28.3179C471.666 27.4748 480.051 27.6236 481.788 28.5163C483.673 29.5081 483.921 30.5992 483.673 37.0959C483.524 41.8569 483.326 42.7 482.036 45.0805C480.2 48.4528 477.024 51.2301 473.402 52.6683C471.169 53.561 469.433 53.7593 464.173 53.9081C458.17 54.0569 457.475 53.9577 454.299 52.7179Z" fill="#C04B53" />
    <path d="M549.764 53.6106C546.191 52.9163 541.875 50.7342 539.741 48.6016C537.558 46.3203 536.863 44.8325 536.863 42.3529V40.6667L539.493 40.6171C540.882 40.5675 543.115 40.4683 544.455 40.3691C546.638 40.2203 546.936 40.3691 548.92 42.3529C551.302 44.8325 553.584 45.4277 557.951 44.8821C560.977 44.535 562.913 43.2951 563.359 41.4106C564.103 38.435 561.722 37.0464 551.947 34.7155C547.432 33.6244 545.05 32.7813 543.115 31.5415C536.615 27.3756 535.573 19.5894 540.684 13.8366C544.306 9.86912 548.226 8.43091 555.668 8.43091C560.382 8.43091 565.096 9.76993 568.073 11.9025C571.596 14.4813 574.672 20.3333 573.035 21.3748C572.638 21.6228 570.256 21.8212 567.725 21.8212C563.111 21.8212 563.111 21.8212 561.523 20.135C559.39 17.8537 558.199 17.3577 555.222 17.3577C550.806 17.3577 548.672 19.2919 549.466 22.6146C549.913 24.3008 552.245 25.2927 560.432 27.2764C563.955 28.1691 567.676 29.2602 568.619 29.7561C576.855 33.922 577.252 45.0309 569.462 50.387C568.122 51.3293 565.89 52.4203 564.5 52.8667C561.474 53.7594 552.989 54.2057 549.764 53.6106Z" fill="#C04B53" />
    <path d="M492.803 53.1643C492.307 52.8171 492.207 48.4529 492.307 32.0374L492.455 11.3073L493.845 10.1171C494.986 9.12523 495.78 8.92685 498.36 8.92685C500.692 8.92685 501.684 9.12523 502.23 9.81953C502.627 10.2659 505.951 15.3244 509.574 21.0773C516.917 32.6821 517.512 33.426 518.157 32.7813C518.356 32.583 518.554 27.822 518.554 22.2675C518.505 12.2992 518.505 12.1504 519.696 10.6626C520.688 9.42279 521.283 9.17482 524.012 8.92685C525.749 8.72848 527.684 8.77807 528.329 8.97645L529.421 9.42279V30.9464C529.421 51.7756 529.371 52.5691 528.478 53.0651C527.089 53.7594 520.341 53.7098 519.398 52.9659C519.001 52.6187 516.222 48.5521 513.295 43.8903C510.318 39.2781 507.291 34.6659 506.497 33.674C505.753 32.6821 505.108 31.5911 505.108 31.2935C505.108 31.0456 504.661 30.5496 504.116 30.2521C503.123 29.7065 503.123 29.8553 503.123 41.113C503.123 51.8748 503.074 52.5691 502.18 53.0651C501.039 53.6602 493.745 53.7098 492.803 53.1643Z" fill="#C04B53" />
    <path d="M390.243 53.561C384.09 52.3211 378.484 47.709 377.789 43.2951C377.541 41.6585 377.64 40.9642 378.136 40.6171C378.533 40.3691 380.915 40.1707 383.495 40.1707C388.109 40.1707 388.109 40.1707 389.697 41.8569C391.93 44.2374 393.27 44.7829 397.189 44.8325C402.399 44.8325 404.93 43.0968 404.285 39.8732C403.987 38.187 400.96 36.7984 394.46 35.261C387.415 33.5748 384.636 32.4342 382.155 30.0537C379.674 27.7228 378.831 25.5903 378.831 21.5236C378.831 18.4984 379.029 17.7049 380.319 15.5724C383.495 10.4146 388.903 8.23253 397.636 8.53009C402.35 8.67887 403.541 8.87725 406.121 10.0675C411.033 12.3488 415.052 17.1098 414.704 20.2342C414.556 21.5732 414.556 21.5732 409.842 21.722C404.086 21.9203 403.243 21.722 402.499 20.0854C401.109 17.0602 393.915 16.3659 391.632 19.0439C390.193 20.7301 390.193 22.0691 391.682 23.5073C392.922 24.7968 395.155 25.5407 403.392 27.574C406.269 28.2683 409.544 29.3594 410.735 30.0537C417.582 34.0707 418.426 43.5431 412.472 49.1968C410.636 50.9821 406.716 52.8171 403.491 53.5114C400.514 54.1065 393.27 54.1561 390.243 53.561Z" fill="#CC6155" />
    <path d="M338.74 53.2138C338.095 52.6187 338.343 13.0431 338.988 11.7041C340.278 8.82763 340.873 8.67885 355.858 8.53007C365.385 8.43088 369.9 8.53007 370.644 8.92682C371.587 9.42275 371.686 9.8195 371.537 13.539L371.388 17.6057L359.381 17.7545C352.732 17.8041 347.324 18.0024 347.324 18.1512C347.324 18.3 347.82 18.8455 348.366 19.2919C349.16 19.9366 349.507 20.8788 349.705 22.8626C349.805 24.3504 350.152 25.8382 350.4 26.1854C350.797 26.6317 353.079 26.7805 358.686 26.7805C364.095 26.7805 366.675 26.9788 367.072 27.3756C367.667 27.9707 367.915 33.0293 367.369 34.4179C367.121 35.0626 365.98 35.2114 360.522 35.261C354.618 35.3106 345.438 35.9057 347.373 36.1041C348.763 36.2528 349.457 37.5919 349.755 40.7658C350.053 43.5927 350.152 43.8406 351.442 44.1878C352.186 44.3862 356.95 44.4854 361.961 44.4358C366.972 44.3862 371.339 44.4358 371.636 44.6341C371.984 44.8325 372.133 46.5683 372.033 49.1471L371.884 53.313L355.461 53.4618C346.431 53.5114 338.938 53.4122 338.74 53.2138Z" fill="#CC6155" />
    <path d="M423.983 53.0154C423.785 52.7179 423.636 43.3943 423.685 32.335C423.735 13.6878 423.834 12.0512 424.678 10.9106C425.769 9.37317 428.201 8.48049 431.525 8.48049C435.891 8.4309 435.643 7.09187 435.643 30.7976C435.643 44.2374 435.445 51.974 435.147 52.6187C434.651 53.4618 434.055 53.561 429.441 53.561C426.315 53.561 424.181 53.3626 423.983 53.0154Z" fill="#CC6155" />
</svg>
