<svg width="261" height="93" viewBox="0 0 261 93" fill="none" xmlns="http://www.w3.org/2000/svg">
    <path d="M34.6762 42.3073C33.7654 41.9886 33.902 41.3512 36.4067 33.1561C37.6818 28.9675 38.9569 24.8244 39.1846 23.9594C41.416 15.9919 46.0155 1.87806 46.4709 1.55936C46.7897 1.37724 50.3873 1.19513 54.4858 1.19513C60.5426 1.19513 61.9543 1.33171 62.1365 1.83253C62.2731 2.19676 61.8632 4.33659 61.2257 6.52196C57.9924 17.4943 50.4328 42.3529 50.2507 42.535C50.2051 42.5805 49.7953 42.4894 49.3399 42.3529C48.7479 42.1252 48.6568 41.7155 48.8389 40.7594C48.9756 40.0309 49.2488 38.8472 49.3854 38.1642L49.6587 36.8439L43.6019 36.8894L37.5451 36.935L36.6344 39.8033C36.1334 41.3512 35.6325 42.626 35.4959 42.5805C35.3593 42.5805 34.9494 42.4439 34.6762 42.3073V42.3073ZM51.1159 32.7464C51.5258 31.5626 51.8445 30.561 51.8445 30.4699C51.8445 30.3789 49.0666 30.3333 45.6967 30.3333C38.8658 30.3333 39.3212 30.1057 38.4559 33.6569L38.1827 34.8862H44.285H50.3873L51.1159 32.7464ZM52.9375 26.8277C53.0741 26.0992 53.3018 25.0976 53.484 24.5512L53.7572 23.5041H47.6549H41.5071L41.0061 25.2797C40.6874 26.2358 40.4597 27.2374 40.4597 27.5561C40.4597 27.9203 42.3268 28.0569 46.562 28.0569H52.6643L52.9375 26.8277V26.8277ZM55.3056 18.9512C55.6699 17.813 55.9431 16.8569 55.9431 16.8114C55.9431 16.7203 53.1652 16.6748 49.7953 16.6748C42.9643 16.6748 43.4197 16.4472 42.5545 19.9984L42.2357 21.2732L48.4746 21.1366L54.7135 21L55.3056 18.9512ZM56.8539 13.7155C57.0816 13.0781 57.4459 12.0309 57.5825 11.439L57.8558 10.3008H51.7535H45.6056L45.1047 12.0764C44.7859 13.0325 44.5582 14.0342 44.5582 14.3529C44.5582 14.7171 46.3798 14.8537 50.4784 14.8537H56.3985L56.8539 13.7155ZM58.6755 7.93334C58.6755 7.84228 58.9942 6.84066 59.3586 5.65692L59.9961 3.47155H53.8483H47.746L47.2906 4.60976C47.0629 5.24716 46.6986 6.29432 46.562 6.88619L46.2887 8.0244H52.4821C55.8976 8.0244 58.6755 7.97887 58.6755 7.93334Z" fill="#E28A59" />
    <path d="M56.6718 38.5284C55.6243 35.1138 55.4877 34.2032 55.8976 32.974L56.3985 31.4715L62.7741 31.6081C66.2806 31.6992 69.1496 31.5626 69.104 31.3805C69.104 31.1984 68.3299 28.6488 67.4191 25.7805L65.6886 20.5447L62.8651 20.4081C60.4515 20.2715 59.9961 20.135 60.1328 19.4976C60.2238 18.9057 60.8614 18.678 62.683 18.587C63.9581 18.4959 65.051 18.3138 65.051 18.1317C65.051 17.9496 64.5046 16.2195 63.9125 14.2618C62.9107 11.1658 62.8196 10.4374 63.275 8.79837L63.7759 6.9317L66.2351 14.8537C67.6012 19.2244 69.4228 25.2797 70.3336 28.2845C71.2444 31.2894 72.474 35.2959 73.066 37.1626C73.658 39.0293 74.1589 40.8959 74.1589 41.3057C74.1589 41.9431 73.2937 42.626 72.6106 42.626C72.5195 42.626 71.882 40.6683 71.1989 38.3008L69.9238 33.9756H63.8215C60.4971 33.9756 57.7647 34.1122 57.7647 34.2943C57.7647 34.4764 58.2201 36.2065 58.721 38.2098C59.5407 41.2146 59.6318 41.8976 59.0853 42.2163C58.721 42.4439 58.3112 42.626 58.1746 42.626C58.0379 42.626 57.3549 40.8049 56.6718 38.5284V38.5284Z" fill="#E28A59" />
    <path d="M0.976935 41.852C0.52154 41.6699 0.384922 37.5268 0.384922 23.2309C0.384922 2.51544 0.339382 2.78861 3.57269 1.46828C5.71304 0.603243 9.99376 0.512187 10.7679 1.28617C11.1778 1.69593 11.3144 5.74796 11.3144 16.7203C11.3144 24.9154 11.451 31.9268 11.5876 32.3366C11.8153 32.974 13.0449 33.065 20.6045 33.065C25.3861 33.065 29.5757 33.2471 29.8945 33.4293C30.3044 33.7024 30.441 34.9317 30.3499 37.891L30.2133 41.9431L15.8684 42.0341C7.99002 42.0797 1.25017 41.9886 0.976935 41.852V41.852Z" fill="#E28A59" />
    <path d="M78.5762 41.8976C78.3941 41.7155 78.2574 33.1561 78.2574 22.9122V4.29106L79.8058 2.7431L81.3541 1.19513H89.9156C101.483 1.19513 104.807 1.96911 108.814 5.61139C111.456 8.0244 112.822 11.0293 113.368 15.6732C114.006 21.1366 113.505 29.8781 112.321 32.974C111.091 36.2976 107.858 39.4846 104.397 40.8504C101.892 41.852 100.982 41.9431 90.3254 42.0797C84.041 42.1707 78.7584 42.0797 78.5762 41.8976ZM99.3422 33.0195C100.025 32.7008 101.073 31.6992 101.619 30.8342C102.53 29.3317 102.621 28.6488 102.621 21.9106C102.621 13.761 102.257 12.3951 99.5244 10.7561C98.2948 9.98212 97.2019 9.84554 92.1925 9.84554H86.3179L87.4564 10.7561C88.5949 11.6211 89.4602 13.4878 88.7315 13.4878C88.5038 13.4878 88.3672 17.4488 88.3672 22.2293C88.3672 31.1073 88.686 33.0195 90.1888 33.7024C91.1451 34.1577 98.0216 33.6114 99.3422 33.0195V33.0195Z" fill="#E28A59" />
    <path d="M121.247 41.5789C121.156 41.2602 121.11 32.6098 121.156 22.4114L121.292 3.83577L122.841 2.46992L124.343 1.10406L134.226 1.28618C143.607 1.42276 144.199 1.51382 146.885 2.6065C150.301 4.06342 151.94 5.33821 153.762 8.02439C156.221 11.6211 156.722 14.3984 156.494 22.9577C156.221 31.6992 155.72 33.6569 152.851 36.935C150.847 39.2114 148.434 40.6228 144.973 41.5333C141.74 42.3984 121.611 42.4439 121.247 41.5789V41.5789ZM142.423 32.8374C145.064 31.5171 145.428 30.0602 145.428 21.6829C145.428 13.3057 145.201 12.4862 142.332 10.7561C141.102 9.98211 140.009 9.84553 135.318 9.84553H129.763L130.901 10.9837L132.04 12.122L131.949 22.4569C131.857 34.7951 131.584 34.2033 137.322 33.7935C139.371 33.6569 141.694 33.2472 142.423 32.8374V32.8374Z" fill="#E28A59" />
    <path d="M164.418 41.6244C163.644 40.8504 163.69 6.65855 164.464 4.42765C164.783 3.56261 165.602 2.4244 166.285 1.92359C167.515 1.01302 168.244 0.967493 180.266 0.830908C189.055 0.739851 193.245 0.830907 193.928 1.19513C194.793 1.65042 194.884 2.01465 194.748 5.42928L194.611 9.16261L183.272 9.2992L171.978 9.39026L173.116 10.5285C173.936 11.3935 174.3 12.3041 174.437 14.1707C174.574 15.5366 174.801 16.8114 174.983 16.9935C175.166 17.2211 178.763 17.4488 182.907 17.5854L190.512 17.813V21.4553V25.0976L181.86 25.3707C177.124 25.5529 172.934 25.6894 172.57 25.735C172.205 25.7805 172.388 26.1447 173.162 26.7366C174.118 27.5106 174.346 28.0569 174.346 29.6959C174.346 33.6569 174.027 33.5203 184.774 33.5203C192.379 33.5203 194.383 33.6569 194.793 34.1577C195.157 34.5675 195.294 36.1155 195.203 38.3919L195.066 41.9431L180.038 42.0797C168.699 42.1707 164.828 42.0342 164.418 41.6244V41.6244Z" fill="#D57256" />
    <path d="M202.899 41.8976C202.717 41.7155 202.58 33.1106 202.58 22.7756V4.01789L204.174 2.60651L205.814 1.19513H215.058C226.306 1.19513 228.857 1.74147 232.545 5.06505C235.46 7.66017 236.507 10.2553 236.507 14.626C236.462 17.2667 236.234 18.2228 235.141 20.3171C234.321 21.774 233.001 23.3675 231.862 24.187C230.815 24.9155 229.95 25.9171 229.95 26.3268C229.904 26.7366 231.68 30.2878 233.82 34.1577C235.961 38.0732 237.6 41.4423 237.418 41.7155C237.099 42.2163 227.673 42.3529 226.898 41.8065C226.58 41.6244 224.849 38.6195 223.073 35.1138C221.251 31.6081 219.43 28.4667 219.066 28.1935C218.61 27.8293 216.88 27.6016 214.466 27.6016H210.595L211.825 28.8764C213.1 30.1968 213.1 30.1968 212.963 36.0699L212.827 41.9431L208 42.0797C205.358 42.1252 203.081 42.0342 202.899 41.8976V41.8976ZM222.845 18.7691C224.712 17.9496 225.35 16.8569 225.35 14.2618C225.35 9.66342 221.206 8.11546 212.371 9.34472C210.595 9.57237 210.322 9.70895 211.051 9.98212C212.371 10.4374 213.009 12.2585 213.009 15.4911C213.009 16.948 213.237 18.4049 213.555 18.7691C214.284 19.6342 220.751 19.6342 222.845 18.7691Z" fill="#D57256" />
    <path d="M149.643 91.6569C145.271 89.9724 142.584 87.2407 140.945 82.7333C139.761 79.4098 139.715 79.1366 139.897 70.9415L140.034 62.6098L141.537 59.5138C142.63 57.3285 143.723 55.9171 145.316 54.6423C148.823 51.865 151.328 51.2276 158.477 51.2276C163.805 51.2732 164.99 51.4098 167.266 52.3203C172.412 54.3691 176.283 58.6033 176.42 62.2455L176.465 63.9756H171.001H165.536L164.625 62.5187C162.758 59.4683 158.25 58.3756 154.515 60.0602C151.282 61.5626 150.963 62.6553 150.963 71.9431C150.963 78.6813 151.1 80.1382 151.783 81.3675C153.013 83.6894 154.925 84.4634 159.388 84.4634C163.76 84.4634 165.263 83.7805 166.538 81.322C166.902 80.548 167.95 79.1366 168.86 78.226L170.454 76.5415L169.361 76.3138C168.769 76.1317 166.31 75.9951 163.942 75.9041L159.616 75.813L159.479 74.2195C159.297 71.9431 160.754 69.8488 162.895 69.2569C165.582 68.4829 173.278 68.6195 174.872 69.439C176.602 70.3496 176.83 71.3512 176.602 77.3155C176.465 81.6862 176.283 82.4602 175.099 84.6455C173.414 87.7415 170.5 90.2911 167.175 91.6114C165.126 92.4309 163.532 92.613 158.705 92.7496C153.195 92.8862 152.557 92.7951 149.643 91.6569V91.6569Z" fill="#C04B53" />
    <path d="M237.261 92.4764C233.982 91.839 230.02 89.8358 228.062 87.878C226.058 85.7837 225.42 84.4179 225.42 82.1415V80.5935L227.834 80.548C229.109 80.5024 231.158 80.4114 232.388 80.3203C234.392 80.1837 234.665 80.3203 236.487 82.1415C238.672 84.4179 240.767 84.9642 244.775 84.4634C247.553 84.1447 249.329 83.0065 249.739 81.2764C250.422 78.5447 248.236 77.2699 239.264 75.1301C235.12 74.1285 232.934 73.3545 231.158 72.2163C225.193 68.3919 224.236 61.2439 228.927 55.9626C232.251 52.3203 235.849 51 242.68 51C247.006 51 251.332 52.2293 254.065 54.187C257.298 56.5545 260.122 61.9268 258.619 62.8829C258.254 63.1106 256.069 63.2927 253.746 63.2927C249.511 63.2927 249.511 63.2927 248.054 61.7447C246.095 59.6504 245.002 59.1951 242.27 59.1951C238.217 59.1951 236.259 60.9707 236.987 64.0211C237.397 65.5691 239.538 66.4797 247.052 68.3008C250.285 69.1203 253.701 70.122 254.566 70.5772C262.125 74.4016 262.49 84.6 255.34 89.5171C254.11 90.3821 252.061 91.3837 250.786 91.7935C248.008 92.613 240.221 93.0228 237.261 92.4764Z" fill="#C04B53" />
    <path d="M184.981 92.0667C184.526 91.748 184.435 87.7415 184.526 72.6715L184.663 53.6407L185.938 52.548C186.985 51.6374 187.714 51.4553 190.082 51.4553C192.222 51.4553 193.133 51.6374 193.634 52.2748C193.998 52.6846 197.049 57.3285 200.374 62.6098C207.114 73.2634 207.66 73.9463 208.252 73.3545C208.434 73.1724 208.616 68.8016 208.616 63.7024C208.571 54.5512 208.571 54.4146 209.664 53.0488C210.575 51.9106 211.121 51.6829 213.626 51.4553C215.22 51.2732 216.996 51.3187 217.588 51.5008L218.59 51.9106V71.6699C218.59 90.7919 218.544 91.5203 217.724 91.9756C216.449 92.613 210.256 92.5675 209.391 91.8846C209.026 91.5659 206.476 87.8325 203.789 83.5529C201.057 79.3187 198.279 75.0846 197.55 74.174C196.867 73.2634 196.275 72.2618 196.275 71.9886C196.275 71.761 195.865 71.3057 195.364 71.0325C194.454 70.5317 194.454 70.6683 194.454 81.0033C194.454 90.8829 194.408 91.5203 193.588 91.9756C192.541 92.522 185.847 92.5675 184.981 92.0667Z" fill="#C04B53" />
    <path d="M0.273226 91.7025C0.136607 91.2927 0 83.0976 0 73.4911C0 54.2325 0.0910902 53.5041 2.68684 52.1838C4.64504 51.1366 19.582 51.1366 23.4528 52.1382C29.2364 53.6407 33.2894 57.1919 34.7922 62.109C35.7485 65.3415 36.1584 72.7171 35.5663 77.6342C34.8832 83.3252 33.0617 87.013 29.6007 89.335C25.6387 92.0212 23.2252 92.4309 11.1116 92.4309C1.91267 92.4309 0.500923 92.3399 0.273226 91.7025ZM19.582 83.735C21.9956 83.1886 23.4528 81.9594 24.1359 79.9106C24.4092 79.0911 24.6369 75.5854 24.6824 72.1252C24.728 66.6618 24.6369 65.5236 23.8172 63.7025C22.451 60.6521 20.9937 60.1057 14.1628 60.1057H8.69803L9.79099 61.2439L10.9295 62.3366V72.4894C10.9295 78.0894 11.1116 82.8699 11.2938 83.1431C11.4759 83.4163 11.9313 83.7805 12.2957 83.9171C13.4342 84.3268 17.3961 84.2358 19.582 83.735V83.735Z" fill="#D57256" />
    <path d="M90.8512 92.4309C85.2043 91.2927 80.0583 87.0585 79.4208 83.0065C79.1931 81.5041 79.2841 80.8667 79.7395 80.548C80.1038 80.3203 82.2898 80.1382 84.6578 80.1382C88.893 80.1382 88.893 80.1382 90.3502 81.6862C92.3995 83.8715 93.6291 84.3723 97.2267 84.4179C102.008 84.4179 104.331 82.8244 103.739 79.865C103.466 78.3171 100.688 77.0423 94.722 75.6309C88.2554 74.0829 85.7052 73.0358 83.4282 70.8504C81.1513 68.7106 80.3771 66.7528 80.3771 63.0195C80.3771 60.2423 80.5592 59.5138 81.7433 57.5561C84.6578 52.8211 89.6216 50.8179 97.6366 51.091C101.963 51.2276 103.056 51.4097 105.424 52.5024C109.932 54.5967 113.621 58.9675 113.302 61.8358C113.166 63.065 113.166 63.065 108.839 63.2016C103.557 63.3837 102.783 63.2016 102.099 61.6992C100.824 58.9219 94.2211 58.2845 92.1263 60.7431C90.8056 62.291 90.8056 63.5203 92.1718 64.8406C93.3103 66.0244 95.3596 66.7073 102.919 68.574C105.56 69.2114 108.566 70.213 109.659 70.8504C115.943 74.5382 116.718 83.2341 111.253 88.4244C109.568 90.0634 105.97 91.748 103.01 92.3854C100.278 92.9317 93.6291 92.9772 90.8512 92.4309V92.4309Z" fill="#CC6155" />
    <path d="M43.5813 92.1122C42.9893 91.5658 43.217 55.2341 43.809 54.0049C44.993 51.3642 45.5395 51.2276 59.2924 51.091C68.036 51 72.1801 51.091 72.8632 51.4553C73.7285 51.9106 73.8195 52.2748 73.6829 55.6894L73.5463 59.4227L62.5257 59.5593C56.4234 59.6049 51.4596 59.787 51.4596 59.9236C51.4596 60.0601 51.915 60.561 52.416 60.9707C53.1446 61.5626 53.4634 62.4276 53.6455 64.2488C53.7366 65.6146 54.0554 66.9805 54.2831 67.2992C54.6474 67.7089 56.7422 67.8455 61.8882 67.8455C66.852 67.8455 69.22 68.0276 69.5844 68.3919C70.1308 68.9382 70.3586 73.5821 69.8576 74.8569C69.6299 75.4488 68.5825 75.5853 63.5731 75.6309C58.1539 75.6764 49.7291 76.2227 51.5052 76.4049C52.7803 76.5414 53.4178 77.7707 53.6911 80.6845C53.9643 83.2797 54.0554 83.5073 55.2394 83.826C55.9225 84.0081 60.2943 84.0992 64.8938 84.0536C69.4933 84.0081 73.5008 84.0536 73.774 84.2358C74.0928 84.4179 74.2294 86.0114 74.1383 88.3788L74.0017 92.2032L58.9281 92.3398C50.6399 92.3854 43.7635 92.2943 43.5813 92.1122V92.1122Z" fill="#CC6155" />
    <path d="M121.818 91.9301C121.636 91.6569 121.499 83.0976 121.545 72.9447C121.59 55.826 121.682 54.3236 122.456 53.2764C123.458 51.865 125.689 51.0455 128.74 51.0455C132.748 51 132.52 49.7707 132.52 71.5333C132.52 83.8715 132.338 90.974 132.065 91.5659C131.609 92.3398 131.063 92.4309 126.828 92.4309C123.959 92.4309 122 92.2488 121.818 91.9301V91.9301Z" fill="#CC6155" />
</svg>
