<svg width="560" height="693" viewBox="0 0 560 693" fill="none" xmlns="http://www.w3.org/2000/svg">
    <path d="M74.5824 163.383C27.5521 228.822 2.12183 294.062 0.158936 355.9C-2.04242 417.746 19.1681 476.38 47.1732 536.819C75.1864 597.059 110.201 659.096 157.215 667.3C204.229 675.305 263.252 629.676 327.67 603.864C392.319 578.243 462.316 572.639 505.96 534.021C549.55 495.196 566.556 423.35 557.751 353.301C548.747 283.259 513.534 214.982 459.518 150.974C405.296 86.7353 331.874 26.6939 261.05 29.4921C190.028 32.2982 121.406 97.9359 74.5824 163.383Z" fill="#F8F8F8" />
    <path d="M194.733 437.126C180.325 477.406 174.412 661.727 174.412 693H248.971L280.004 623.046L226.139 427.182L194.733 437.126Z" fill="#56CAD8" />
    <path d="M221.125 442.254C225.194 469.186 261.408 671.632 269.49 693H377.219C381.797 677.737 399.089 498.177 377.219 432.055C355.349 365.932 221.125 442.254 221.125 442.254Z" fill="#74D5DE" />
    <path d="M202.441 335.224C195.583 333.872 102.254 291.288 81.1149 273.163C59.9759 255.039 85.2314 241.04 93.1943 245.706C101.157 250.373 184.052 286.073 201.075 291.288C218.097 296.503 202.441 335.224 202.441 335.224Z" fill="#DE8E68" />
    <path d="M59.531 142.099L127.407 147.395L117.178 278.574L49.3022 273.278L59.531 142.099Z" fill="#DEDEDE" />
    <path d="M156.524 172.278L121.025 244.482" stroke="black" stroke-width="8" stroke-linecap="round" stroke-linejoin="round" />
    <path d="M296.349 142.417C277.021 140.303 263.838 115.847 266.904 87.7938C269.971 59.7401 288.125 38.7119 307.453 40.8258C326.782 42.9398 339.964 67.3955 336.898 95.4492C333.831 123.503 315.677 144.531 296.349 142.417Z" fill="#DE8E68" />
    <path d="M308.875 150.513C191.26 150.513 185.777 437.087 190.942 442.254C196.108 447.421 315.71 471.666 380.875 444.639C396.777 375.479 385.961 150.513 308.875 150.513Z" fill="#FED385" />
    <path d="M122.765 209.99C122.765 203.281 129.917 189.322 140.415 191.802C147.639 193.503 157.573 207.995 161.872 214.147C176.423 224.172 268.497 300.35 275.577 307.727C275.872 301.574 281.776 289.261 288.865 277.869L348.825 316.654C342.618 333.896 303.932 379.454 288.865 379.454C249.313 379.454 169.342 271.955 149.077 243.123C139.605 236.533 122.757 223.377 122.765 209.99Z" fill="#DE8E68" />
    <path d="M362.311 66.7745C362.311 51.8536 350.208 43.1252 346.274 39.0472C338.327 30.7799 333.559 8.73633 316.767 8.73633C311.998 8.73633 304.592 11.5106 299.935 11.5106C294.11 11.4868 282.515 0 270.825 0C251.244 0 246.889 18.0291 246.889 23.5698C246.889 43.8565 272.144 59.167 275.498 60.9953C276.921 58.6662 283.445 49.9537 285.615 48.6341C288.213 54.0555 305.752 63.078 319.008 71.1625C326.43 75.6936 331.103 110.862 330.992 113.636C343.373 113.676 362.311 94.8834 362.311 66.7745Z" fill="#64350A" />
    <path d="M332.939 110.257C327.431 110.257 322.965 105.791 322.965 100.281C322.965 94.7712 327.431 90.3046 332.939 90.3046C338.447 90.3046 342.912 94.7712 342.912 100.281C342.912 105.791 338.447 110.257 332.939 110.257Z" fill="#DE8E68" />
    <path d="M292.187 169.52C291.392 174.504 322.632 173.24 322.997 167.93L326.438 117.976L298.147 114.884C298.147 114.884 292.934 164.551 292.187 169.52Z" fill="#DE8E68" />
    <path d="M371.116 193.439C406.234 212.573 374.835 311.948 352.655 322.123C327.598 322.123 277.032 285.835 277.032 273.585C277.032 261.335 325.564 168.637 371.116 193.439Z" fill="#FFDFA4" />
    <path d="M77.7214 200.785C77.7214 217.279 58.1162 225.984 55.2633 225.984C49.2871 225.984 49.2871 207.931 49.2871 203.257C49.2871 192.605 59.6738 184.806 67.5652 184.806C75.4565 184.806 77.7214 191.436 77.7214 200.785Z" fill="#DE8E68" />
</svg>
