<svg width="155" height="25" viewBox="0 0 155 25" fill="none" xmlns="http://www.w3.org/2000/svg">
    <path d="M0.666656 5.78507C0.666656 3.31457 3.41582 1.83714 5.47613 3.2004L20.7785 13.3257C25.1147 16.1949 30.7457 16.1949 35.0819 13.3257L50.3843 3.2004C52.4446 1.83713 55.1938 3.31457 55.1938 5.78507V5.78507C55.1938 6.84275 54.6544 7.8274 53.7631 8.39682L38.6977 18.0216C32.1321 22.2161 23.7283 22.2161 17.1627 18.0216L2.09735 8.39682C1.20604 7.8274 0.666656 6.84275 0.666656 5.78507V5.78507Z" fill="#FF8C65" />
    <path d="M99.2349 5.78507C99.2349 3.31457 101.984 1.83714 104.044 3.20041L119.347 13.3257C123.683 16.1949 129.314 16.1949 133.65 13.3257L148.953 3.2004C151.013 1.83713 153.762 3.31457 153.762 5.78507V5.78507C153.762 6.84275 153.223 7.8274 152.331 8.39682L137.266 18.0216C130.7 22.2161 122.297 22.2161 115.731 18.0216L100.666 8.39682C99.7743 7.8274 99.2349 6.84275 99.2349 5.78507V5.78507Z" fill="#FF8C65" />
    <path d="M49.9508 5.78507C49.9508 3.31457 52.6999 1.83714 54.7602 3.20041L70.0626 13.3257C74.3988 16.1949 80.0299 16.1949 84.366 13.3257L99.6684 3.2004C101.729 1.83713 104.478 3.31457 104.478 5.78507V5.78507C104.478 6.84275 103.938 7.8274 103.047 8.39682L87.9818 18.0216C81.4162 22.2161 73.0124 22.2161 66.4468 18.0216L51.3815 8.39682C50.4902 7.8274 49.9508 6.84275 49.9508 5.78507V5.78507Z" fill="#FF8C65" />
</svg>
