<svg width="155" height="25" viewBox="0 0 155 25" fill="none" xmlns="http://www.w3.org/2000/svg">
    <path d="M0.333309 5.78507C0.333309 3.31457 3.08247 1.83714 5.14278 3.2004L20.4452 13.3257C24.7813 16.1949 30.4124 16.1949 34.7485 13.3257L50.0509 3.2004C52.1113 1.83713 54.8604 3.31457 54.8604 5.78507C54.8604 6.84275 54.321 7.8274 53.4297 8.39682L38.3644 18.0216C31.7988 22.2161 23.3949 22.2161 16.8294 18.0216L1.764 8.39682C0.872691 7.8274 0.333309 6.84275 0.333309 5.78507Z" fill="white" />
    <path d="M98.9015 5.78507C98.9015 3.31457 101.651 1.83714 103.711 3.20041L119.013 13.3257C123.35 16.1949 128.981 16.1949 133.317 13.3257L148.619 3.2004C150.679 1.83713 153.429 3.31457 153.429 5.78507C153.429 6.84275 152.889 7.8274 151.998 8.39682L136.933 18.0216C130.367 22.2161 121.963 22.2161 115.398 18.0216L100.332 8.39682C99.4409 7.8274 98.9015 6.84275 98.9015 5.78507Z" fill="white" />
    <path d="M49.6174 5.78507C49.6174 3.31457 52.3666 1.83714 54.4269 3.20041L69.7293 13.3257C74.0654 16.1949 79.6965 16.1949 84.0327 13.3257L99.335 3.2004C101.395 1.83713 104.145 3.31457 104.145 5.78507C104.145 6.84275 103.605 7.8274 102.714 8.39682L87.6485 18.0216C81.0829 22.2161 72.6791 22.2161 66.1135 18.0216L51.0481 8.39682C50.1568 7.8274 49.6174 6.84275 49.6174 5.78507Z" fill="white" />
</svg>
