<svg width="287" height="20" viewBox="0 0 287 20" fill="none" xmlns="http://www.w3.org/2000/svg">
    <path d="M0 4.44183C0 2.45085 2.14048 1.19373 3.87933 2.16348L19.5852 10.9225C23.5726 13.1463 28.4274 13.1463 32.4148 10.9225L48.1207 2.16347C49.8595 1.19373 52 2.45085 52 4.44183C52 5.40153 51.4731 6.28373 50.6281 6.73873L35.482 14.8943C29.5625 18.0817 22.4375 18.0817 16.518 14.8943L1.37192 6.73873C0.526933 6.28373 0 5.40153 0 4.44183Z" fill="#862A00" />
    <path d="M94 4.44183C94 2.45085 96.1405 1.19373 97.8793 2.16348L113.585 10.9225C117.573 13.1463 122.427 13.1463 126.415 10.9225L142.121 2.16347C143.86 1.19373 146 2.45085 146 4.44183C146 5.40153 145.473 6.28373 144.628 6.73873L129.482 14.8943C123.562 18.0817 116.438 18.0817 110.518 14.8943L95.3719 6.73873C94.5269 6.28373 94 5.40153 94 4.44183Z" fill="#862A00" />
    <path d="M141 4.44183C141 2.45085 143.14 1.19373 144.879 2.16348L160.585 10.9225C164.573 13.1463 169.427 13.1463 173.415 10.9225L189.121 2.16347C190.86 1.19373 193 2.45085 193 4.44183C193 5.40153 192.473 6.28373 191.628 6.73873L176.482 14.8943C170.562 18.0817 163.438 18.0817 157.518 14.8943L142.372 6.73873C141.527 6.28373 141 5.40153 141 4.44183Z" fill="#862A00" />
    <path d="M188 4.44183C188 2.45085 190.14 1.19373 191.879 2.16348L207.585 10.9225C211.573 13.1463 216.427 13.1463 220.415 10.9225L236.121 2.16347C237.86 1.19373 240 2.45085 240 4.44183C240 5.40153 239.473 6.28373 238.628 6.73873L223.482 14.8943C217.562 18.0817 210.438 18.0817 204.518 14.8943L189.372 6.73873C188.527 6.28373 188 5.40153 188 4.44183Z" fill="#862A00" />
    <path d="M235 4.44183C235 2.45085 237.14 1.19373 238.879 2.16348L254.585 10.9225C258.573 13.1463 263.427 13.1463 267.415 10.9225L283.121 2.16347C284.86 1.19373 287 2.45085 287 4.44183C287 5.40153 286.473 6.28373 285.628 6.73873L270.482 14.8943C264.562 18.0817 257.438 18.0817 251.518 14.8943L236.372 6.73873C235.527 6.28373 235 5.40153 235 4.44183Z" fill="#862A00" />
    <path d="M47 4.44183C47 2.45085 49.1405 1.19373 50.8793 2.16348L66.5852 10.9225C70.5726 13.1463 75.4274 13.1463 79.4148 10.9225L95.1207 2.16347C96.8595 1.19373 99 2.45085 99 4.44183C99 5.40153 98.4731 6.28373 97.6281 6.73873L82.482 14.8943C76.5625 18.0817 69.4375 18.0817 63.518 14.8943L48.3719 6.73873C47.5269 6.28373 47 5.40153 47 4.44183Z" fill="#862A00" />
</svg>
